<?xml version="1.0" standalone="no"?>
<!DOCTYPE svg PUBLIC "-//W3C//DTD SVG 20010904//EN"
 "http://www.w3.org/TR/2001/REC-SVG-20010904/DTD/svg10.dtd">
<svg version="1.0" xmlns="http://www.w3.org/2000/svg"
 width="700.000000pt" height="700.000000pt" viewBox="0 0 700.000000 700.000000"
 preserveAspectRatio="xMidYMid meet">
<metadata>
Created by potrace 1.14, written by Peter Selinger 2001-2017
</metadata>
<g transform="translate(0.000000,700.000000) scale(0.100000,-0.100000)"
fill="#000000" stroke="none">
<path d="M1150 6985 c-377 -76 -668 -389 -706 -760 -9 -80 -11 -514 -3 -527 6
-9 155 -12 379 -9 l55 1 0 233 c-1 263 4 308 46 392 64 129 186 220 324 241
28 4 1051 7 2275 7 1672 0 2236 -3 2270 -12 147 -38 266 -149 312 -290 l21
-66 1 -2665 c1 -1466 -2 -2692 -7 -2725 -27 -185 -184 -338 -374 -363 -101
-13 -4471 -6 -4527 7 -165 39 -296 173 -329 336 -8 38 -13 146 -12 293 0 149
-3 232 -10 232 -21 1 -264 1 -345 1 l-85 -1 1 -237 c1 -270 6 -330 34 -430 83
-300 310 -523 625 -617 70 -21 74 -21 2385 -23 l2315 -2 95 24 c366 95 621
382 666 750 9 71 9 5354 0 5444 -4 41 -9 78 -11 81 -2 4 -7 22 -10 40 -18 100
-114 281 -197 370 -40 43 -142 129 -183 155 -62 40 -206 101 -262 111 -15 3
-50 10 -78 14 -27 5 -1074 9 -2325 8 -1831 0 -2288 -2 -2340 -13z"/>
<path d="M580 5238 c-42 -16 -98 -68 -120 -113 -19 -39 -22 -64 -23 -178 l-2
-132 -132 -2 c-111 -2 -138 -5 -177 -24 -111 -52 -156 -186 -101 -296 23 -47
88 -98 137 -109 24 -5 249 -9 513 -9 470 0 470 0 514 23 139 73 164 257 48
359 -51 45 -95 56 -236 57 l-125 1 -1 135 c-2 116 -5 141 -23 176 -50 98 -173
149 -272 112z"/>
<path d="M563 3914 c-99 -47 -125 -106 -126 -284 l0 -130 -131 0 c-108 0 -139
-4 -173 -20 -82 -37 -125 -98 -129 -184 -5 -85 27 -148 97 -196 l52 -35 501 0
c553 0 527 -3 595 64 119 116 55 331 -109 366 -8 2 -71 4 -140 4 l-125 1 -1
128 c0 149 -4 165 -44 220 -60 83 -173 111 -267 66z"/>
<path d="M615 2620 c-73 -16 -126 -59 -157 -129 -16 -36 -20 -66 -21 -172 0
-124 -1 -129 -21 -130 -12 0 -64 0 -116 0 -161 1 -237 -36 -283 -138 -35 -79
-9 -185 59 -245 63 -55 68 -56 589 -55 453 0 482 1 520 20 135 65 168 244 64
348 -62 63 -95 70 -319 71 l-56 0 1 108 c1 59 -3 127 -7 152 -20 112 -142 194
-253 170z"/>
</g>
</svg>
