<?xml version="1.0" encoding="utf-8"?>
<svg width="196px" height="40px" viewBox="0 0 196 40" version="1.1" xmlns:xlink="http://www.w3.org/1999/xlink" xmlns="http://www.w3.org/2000/svg">
  <defs>
    <filter filterUnits="userSpaceOnUse" color-interpolation-filters="sRGB" id="filter_1">
      <feFlood flood-opacity="0" result="BackgroundImageFix" />
      <feColorMatrix in="SourceAlpha" type="matrix" values="0 0 0 0 0 0 0 0 0 0 0 0 0 0 0 0 0 0 127 0" />
      <feOffset dx="0" dy="1" />
      <feGaussianBlur stdDeviation="1" />
      <feColorMatrix type="matrix" values="0 0 0 0 0 0 0 0 0 0 0 0 0 0 0 0 0 0 0.23921569 0" />
      <feBlend mode="normal" in2="BackgroundImageFix" result="effect0_dropShadow" />
      <feBlend mode="normal" in="SourceGraphic" in2="effect0_dropShadow" result="shape" />
    </filter>
  </defs>
  <g id="Google-Dark">
    <path d="M1.999 0L194.001 0Q194.099 0 194.197 0.00962573Q194.295 0.0192515 194.391 0.0384102Q194.487 0.057569 194.581 0.0860763Q194.675 0.114584 194.766 0.152165Q194.857 0.189746 194.943 0.236039Q195.03 0.282333 195.112 0.336892Q195.193 0.391452 195.269 0.453752Q195.345 0.516052 195.415 0.585494Q195.484 0.654935 195.546 0.730848Q195.609 0.806761 195.663 0.888415Q195.718 0.970069 195.764 1.05668Q195.81 1.14329 195.848 1.23402Q195.885 1.32474 195.914 1.41872Q195.942 1.5127 195.962 1.60901Q195.981 1.70533 195.99 1.80306Q196 1.9008 196 1.999L196 38.001Q196 38.0992 195.99 38.1969Q195.981 38.2947 195.962 38.391Q195.942 38.4873 195.914 38.5813Q195.885 38.6753 195.848 38.766Q195.81 38.8567 195.764 38.9433Q195.718 39.0299 195.663 39.1116Q195.609 39.1932 195.546 39.2692Q195.484 39.3451 195.415 39.4145Q195.345 39.4839 195.269 39.5462Q195.193 39.6085 195.112 39.6631Q195.03 39.7177 194.943 39.764Q194.857 39.8102 194.766 39.8478Q194.675 39.8854 194.581 39.9139Q194.487 39.9424 194.391 39.9616Q194.295 39.9807 194.197 39.9904Q194.099 40 194.001 40L1.999 40Q1.9008 40 1.80306 39.9904Q1.70533 39.9807 1.60901 39.9616Q1.5127 39.9424 1.41872 39.9139Q1.32474 39.8854 1.23402 39.8478Q1.14329 39.8102 1.05668 39.764Q0.970069 39.7177 0.888415 39.6631Q0.806761 39.6085 0.730848 39.5462Q0.654935 39.4839 0.585494 39.4145Q0.516052 39.3451 0.453752 39.2692Q0.391452 39.1932 0.336892 39.1116Q0.282333 39.0299 0.236039 38.9433Q0.189746 38.8567 0.152165 38.766Q0.114584 38.6753 0.0860763 38.5813Q0.057569 38.4873 0.0384102 38.391Q0.0192515 38.2947 0.00962573 38.1969Q0 38.0992 0 38.001L0 1.999Q0 1.9008 0.00962573 1.80306Q0.0192515 1.70533 0.0384102 1.60901Q0.057569 1.5127 0.0860763 1.41872Q0.114584 1.32474 0.152165 1.23402Q0.189746 1.14329 0.236039 1.05668Q0.282333 0.970069 0.336892 0.888415Q0.391452 0.806761 0.453752 0.730848Q0.516052 0.654935 0.585494 0.585494Q0.654935 0.516052 0.730848 0.453752Q0.806761 0.391452 0.888415 0.336892Q0.970069 0.282333 1.05668 0.236039Q1.14329 0.189746 1.23402 0.152165Q1.32474 0.114584 1.41872 0.0860763Q1.5127 0.057569 1.60901 0.0384102Q1.70533 0.0192515 1.80306 0.00962573Q1.9008 0 1.999 0L1.999 0Z" id="Rectangle" fill="#4285F4" fill-rule="evenodd" stroke="none" filter="url(#filter_1)" />
    <path d="M2.999 1L37.001 1Q37.0992 1 37.1969 1.00963Q37.2947 1.01925 37.391 1.03841Q37.4873 1.05757 37.5813 1.08608Q37.6753 1.11458 37.766 1.15216Q37.8567 1.18975 37.9433 1.23604Q38.0299 1.28233 38.1116 1.33689Q38.1932 1.39145 38.2691 1.45375Q38.3451 1.51605 38.4145 1.58549Q38.4839 1.65493 38.5462 1.73085Q38.6085 1.80676 38.6631 1.88842Q38.7177 1.97007 38.764 2.05668Q38.8103 2.14329 38.8478 2.23402Q38.8854 2.32474 38.9139 2.41872Q38.9424 2.5127 38.9616 2.60901Q38.9807 2.70533 38.9904 2.80306Q39 2.9008 39 2.999L39 37.001Q39 37.0992 38.9904 37.1969Q38.9807 37.2947 38.9616 37.391Q38.9424 37.4873 38.9139 37.5813Q38.8854 37.6753 38.8478 37.766Q38.8103 37.8567 38.764 37.9433Q38.7177 38.0299 38.6631 38.1116Q38.6085 38.1932 38.5462 38.2691Q38.4839 38.3451 38.4145 38.4145Q38.3451 38.4839 38.2691 38.5462Q38.1932 38.6085 38.1116 38.6631Q38.0299 38.7177 37.9433 38.764Q37.8567 38.8103 37.766 38.8478Q37.6753 38.8854 37.5813 38.9139Q37.4873 38.9424 37.391 38.9616Q37.2947 38.9807 37.1969 38.9904Q37.0992 39 37.001 39L2.999 39Q2.9008 39 2.80306 38.9904Q2.70533 38.9807 2.60901 38.9616Q2.5127 38.9424 2.41872 38.9139Q2.32474 38.8854 2.23402 38.8478Q2.14329 38.8103 2.05668 38.764Q1.97007 38.7177 1.88842 38.6631Q1.80676 38.6085 1.73085 38.5462Q1.65493 38.4839 1.58549 38.4145Q1.51605 38.3451 1.45375 38.2691Q1.39145 38.1932 1.33689 38.1116Q1.28233 38.0299 1.23604 37.9433Q1.18975 37.8567 1.15216 37.766Q1.11458 37.6753 1.08608 37.5813Q1.05757 37.4873 1.03841 37.391Q1.01925 37.2947 1.00963 37.1969Q1 37.0992 1 37.001L1 2.999Q1 2.9008 1.00963 2.80306Q1.01925 2.70533 1.03841 2.60901Q1.05757 2.5127 1.08608 2.41872Q1.11458 2.32474 1.15216 2.23402Q1.18975 2.14329 1.23604 2.05668Q1.28233 1.97007 1.33689 1.88842Q1.39145 1.80676 1.45375 1.73085Q1.51605 1.65493 1.58549 1.58549Q1.65493 1.51605 1.73085 1.45375Q1.80676 1.39145 1.88842 1.33689Q1.97007 1.28233 2.05668 1.23604Q2.14329 1.18975 2.23402 1.15216Q2.32474 1.11458 2.41872 1.08608Q2.5127 1.05757 2.60901 1.03841Q2.70533 1.01925 2.80306 1.00963Q2.9008 1 2.999 1L2.999 1Z" id="Rectangle-2" fill="#FFFFFF" fill-rule="evenodd" stroke="none" />
    <g id="google-icon" transform="translate(10 10)">
      <path d="M19.5327 10.1871C19.5327 9.36771 19.4662 8.76977 19.3223 8.14969L9.96565 8.14969L9.96565 11.848L15.4578 11.848C15.3471 12.7671 14.7492 14.1512 13.4204 15.0813L13.4018 15.2051L16.3602 17.4969L16.5651 17.5174C18.4475 15.7789 19.5327 13.2211 19.5327 10.1871" id="Shape" fill="#4285F4" fill-rule="evenodd" stroke="none" />
      <path d="M9.96565 19.9313C12.6563 19.9313 14.9152 19.0454 16.5651 17.5174L13.4204 15.0813C12.5789 15.6682 11.4494 16.0779 9.96565 16.0779C7.33031 16.0779 5.09359 14.3395 4.29626 11.9366L4.17939 11.9466L1.10321 14.3273L1.06298 14.4391C2.70176 17.6945 6.06794 19.9313 9.96565 19.9313" id="Shape" fill="#34A853" fill-rule="evenodd" stroke="none" />
      <path d="M4.29626 11.9366C4.08588 11.3166 3.96412 10.6521 3.96412 9.96565C3.96412 9.27908 4.08588 8.61473 4.28519 7.99466L4.27962 7.8626L1.16489 5.44366L1.06298 5.49214C0.387557 6.84305 0 8.36008 0 9.96565C0 11.5712 0.387557 13.0882 1.06298 14.4391L4.29626 11.9366" id="Shape" fill="#FBBC05" fill-rule="evenodd" stroke="none" />
      <path d="M9.96565 3.85336C11.8369 3.85336 13.0992 4.66168 13.819 5.33718L16.6315 2.59107C14.9042 0.985496 12.6563 0 9.96565 0C6.06794 0 2.70176 2.23672 1.06298 5.49214L4.28519 7.99466C5.09359 5.59183 7.33031 3.85336 9.96565 3.85336" id="Shape" fill="#EB4335" fill-rule="evenodd" stroke="none" />
    </g>
    <g id="Sign-in-with-Google" fill="#FFFFFF" transform="translate(39 11)">
      <path d="M87.9269 5.94336Q86.6827 5.94336 85.8692 6.88672L85.8692 2.97656L84.2081 2.97656L84.2081 13.4766L85.8692 13.4766L85.8692 8.19238Q86.3614 7.30371 87.3595 7.30371Q88.0021 7.30371 88.3336 7.62158Q88.6651 7.93945 88.6651 8.70508L88.6651 13.4766L90.3263 13.4766L90.3263 8.64355Q90.2921 5.94336 87.9269 5.94336ZM132.665 13.4766L131.004 13.4766L131.004 2.97656L132.665 2.97656L132.665 13.4766ZM25.0115 3.52344Q24.7689 3.77637 24.7689 4.15918Q24.7689 4.53516 25.0115 4.78467Q25.2542 5.03418 25.7054 5.03418Q26.1565 5.03418 26.4026 4.78467Q26.6487 4.53516 26.6487 4.15918Q26.6487 3.77637 26.4026 3.52344Q26.1565 3.27051 25.7054 3.27051Q25.2542 3.27051 25.0115 3.52344ZM48.753 4.15918Q48.753 3.77637 48.9957 3.52344Q49.2384 3.27051 49.6896 3.27051Q50.1407 3.27051 50.3868 3.52344Q50.6329 3.77637 50.6329 4.15918Q50.6329 4.53516 50.3868 4.78467Q50.1407 5.03418 49.6896 5.03418Q49.2384 5.03418 48.9957 4.78467Q48.753 4.53516 48.753 4.15918ZM75.4477 3.52344Q75.205 3.77637 75.205 4.15918Q75.205 4.53516 75.4477 4.78467Q75.6903 5.03418 76.1415 5.03418Q76.5927 5.03418 76.8388 4.78467Q77.0849 4.53516 77.0849 4.15918Q77.0849 3.77637 76.8388 3.52344Q76.5927 3.27051 76.1415 3.27051Q75.6903 3.27051 75.4477 3.52344ZM20.8176 9.90137Q21.279 10.2568 21.279 10.9131Q21.279 11.5146 20.8244 11.8804Q20.3698 12.2461 19.4675 12.2461Q18.4216 12.2461 17.861 11.7813Q17.3005 11.3164 17.3005 10.4688L15.571 10.4688Q15.571 11.4053 16.0734 12.1094Q16.5759 12.8135 17.4816 13.2134Q18.3874 13.6133 19.4675 13.6133Q21.1013 13.6133 22.0549 12.8784Q23.0085 12.1436 23.0085 10.8994Q23.0085 10.1338 22.6804 9.56299Q22.3522 8.99219 21.6481 8.55127Q20.944 8.11035 19.7819 7.76514Q18.6198 7.41992 18.114 7.0542Q17.6081 6.68848 17.6081 6.1416Q17.6081 5.49219 18.0764 5.12988Q18.5446 4.76758 19.3923 4.76758Q20.3015 4.76758 20.7902 5.2085Q21.279 5.64941 21.279 6.42871L23.0017 6.42871Q23.0017 5.56738 22.5368 4.85986Q22.072 4.15234 21.2585 3.76953Q20.445 3.38672 19.406 3.38672Q17.8405 3.38672 16.8596 4.16602Q15.8786 4.94531 15.8786 6.14844Q15.8786 7.52246 17.239 8.37695Q17.9499 8.82129 19.153 9.18359Q20.3562 9.5459 20.8176 9.90137ZM103.68 12.1846Q103.14 12.8887 102.183 13.251Q101.226 13.6133 100.009 13.6133Q98.7585 13.6133 97.7946 13.0459Q96.8308 12.4785 96.3078 11.4224Q95.7849 10.3662 95.7644 8.95801L95.7644 8.17871Q95.7644 5.92285 96.8444 4.65479Q97.9245 3.38672 99.8591 3.38672Q101.52 3.38672 102.498 4.21045Q103.475 5.03418 103.674 6.5791L101.978 6.5791Q101.691 4.78125 99.8933 4.78125Q98.7312 4.78125 98.1262 5.6179Q97.5212 6.45456 97.5007 8.07318L97.5007 8.83806Q97.5007 10.4498 98.1809 11.3411Q98.861 12.2324 100.071 12.2324Q101.397 12.2324 101.958 11.6309L101.958 9.68262L99.9069 9.68262L99.9069 8.37012L103.68 8.37012L103.68 12.1846ZM81.2583 4.28223L81.2583 6.08008L82.564 6.08008L82.564 7.31055L81.2583 7.31055L81.2583 11.4395Q81.2583 11.8633 81.4258 12.0513Q81.5933 12.2393 82.0239 12.2393Q82.311 12.2393 82.605 12.1709L82.605 13.4561Q82.0376 13.6133 81.5112 13.6133Q79.5972 13.6133 79.5972 11.501L79.5972 7.31055L78.3804 7.31055L78.3804 6.08008L79.5972 6.08008L79.5972 4.28223L81.2583 4.28223ZM28.4501 9.72363Q28.4501 8.00098 29.2602 6.97217Q30.0702 5.94336 31.4101 5.94336Q32.6747 5.94336 33.3993 6.8252L33.4745 6.08008L34.9716 6.08008L34.9716 13.251Q34.9716 14.707 34.0658 15.5479Q33.1601 16.3887 31.622 16.3887Q30.8085 16.3887 30.0326 16.0503Q29.2567 15.7119 28.8534 15.165L29.6396 14.167Q30.4052 15.0762 31.5263 15.0762Q32.3534 15.0762 32.8319 14.6284Q33.3105 14.1807 33.3105 13.3125L33.3105 12.8135Q32.5927 13.6133 31.3964 13.6133Q30.0976 13.6133 29.2738 12.5811Q28.4501 11.5488 28.4501 9.72363ZM38.6665 6.93457L38.6187 6.08008L37.0532 6.08008L37.0532 13.4766L38.7144 13.4766L38.7144 8.21289Q39.2065 7.30371 40.2114 7.30371Q40.9019 7.30371 41.2061 7.64209Q41.5103 7.98047 41.5103 8.68457L41.5103 13.4766L43.1714 13.4766L43.1714 8.58887Q43.1304 5.94336 40.8198 5.94336Q39.4868 5.94336 38.6665 6.93457ZM54.3142 6.93457L54.2663 6.08008L52.7009 6.08008L52.7009 13.4766L54.362 13.4766L54.362 8.21289Q54.8542 7.30371 55.8591 7.30371Q56.5495 7.30371 56.8537 7.64209Q57.1579 7.98047 57.1579 8.68457L57.1579 13.4766L58.819 13.4766L58.819 8.58887Q58.778 5.94336 56.4675 5.94336Q55.1345 5.94336 54.3142 6.93457ZM105.94 7.75146Q105.509 8.62305 105.509 9.70996L105.509 9.79199Q105.509 11.5283 106.449 12.5708Q107.389 13.6133 108.954 13.6133Q109.98 13.6133 110.763 13.1416Q111.545 12.6699 111.966 11.8086Q112.386 10.9473 112.386 9.85352L112.379 9.46387Q112.304 7.87109 111.371 6.90723Q110.438 5.94336 108.941 5.94336Q107.929 5.94336 107.15 6.41162Q106.37 6.87988 105.94 7.75146ZM113.88 9.70996Q113.88 8.62305 114.31 7.75146Q114.741 6.87988 115.52 6.41162Q116.3 5.94336 117.311 5.94336Q118.809 5.94336 119.742 6.90723Q120.675 7.87109 120.75 9.46387L120.757 9.85352Q120.757 10.9473 120.336 11.8086Q119.916 12.6699 119.133 13.1416Q118.351 13.6133 117.325 13.6133Q115.76 13.6133 114.82 12.5708Q113.88 11.5283 113.88 9.79199L113.88 9.70996ZM123.081 6.97217Q122.271 8.00098 122.271 9.72363Q122.271 11.5488 123.095 12.5811Q123.918 13.6133 125.217 13.6133Q126.414 13.6133 127.131 12.8135L127.131 13.3125Q127.131 14.1807 126.653 14.6284Q126.174 15.0762 125.347 15.0762Q124.226 15.0762 123.46 14.167L122.674 15.165Q123.078 15.7119 123.854 16.0503Q124.629 16.3887 125.443 16.3887Q126.981 16.3887 127.887 15.5479Q128.792 14.707 128.792 13.251L128.792 6.08008L127.295 6.08008L127.22 6.8252Q126.496 5.94336 125.231 5.94336Q123.891 5.94336 123.081 6.97217ZM135.571 12.6187Q136.551 13.6133 138.131 13.6133Q139.053 13.6133 139.795 13.2476Q140.537 12.8818 140.981 12.2188L140.086 11.3643Q139.368 12.2871 138.226 12.2871Q137.413 12.2871 136.876 11.7539Q136.34 11.2207 136.264 10.3047L141.097 10.3047L141.097 9.63477Q141.097 7.87109 140.274 6.90723Q139.45 5.94336 137.939 5.94336Q136.989 5.94336 136.217 6.42871Q135.444 6.91406 135.017 7.78564Q134.59 8.65723 134.59 9.76465L134.59 9.96973Q134.59 11.624 135.571 12.6187ZM24.8714 13.4766L26.5325 13.4766L26.5325 6.08008L24.8714 6.08008L24.8714 13.4766ZM50.5167 13.4766L48.8556 13.4766L48.8556 6.08008L50.5167 6.08008L50.5167 13.4766ZM70.8948 11.1865L72.0706 6.08008L73.6907 6.08008L71.6741 13.4766L70.3069 13.4766L68.721 8.39746L67.1624 13.4766L65.7952 13.4766L63.7718 6.08008L65.3919 6.08008L66.5882 11.1318L68.1058 6.08008L69.3567 6.08008L70.8948 11.1865ZM75.3075 13.4766L76.9687 13.4766L76.9687 6.08008L75.3075 6.08008L75.3075 13.4766ZM107.642 11.6411Q107.17 10.9951 107.17 9.85352Q107.17 8.56836 107.649 7.92236Q108.127 7.27637 108.941 7.27637Q109.768 7.27637 110.25 7.93262Q110.732 8.58887 110.732 9.70996Q110.732 10.9746 110.263 11.6309Q109.795 12.2871 108.954 12.2871Q108.114 12.2871 107.642 11.6411ZM115.541 9.85352Q115.541 10.9951 116.013 11.6411Q116.484 12.2871 117.325 12.2871Q118.166 12.2871 118.634 11.6309Q119.102 10.9746 119.102 9.70996Q119.102 8.58887 118.621 7.93262Q118.139 7.27637 117.311 7.27637Q116.498 7.27637 116.019 7.92236Q115.541 8.56836 115.541 9.85352ZM136.828 7.75488Q137.249 7.27637 137.932 7.27637Q138.623 7.27637 139.012 7.70361Q139.402 8.13086 139.457 8.96484L139.457 9.08789L136.292 9.08789Q136.408 8.2334 136.828 7.75488ZM30.1044 9.86719Q30.1044 10.9814 30.559 11.6206Q31.0136 12.2598 31.8202 12.2598Q32.8251 12.2598 33.3105 11.3984L33.3105 8.14453Q32.8388 7.30371 31.8339 7.30371Q31.0136 7.30371 30.559 7.95313Q30.1044 8.60254 30.1044 9.86719ZM124.38 11.6206Q123.925 10.9814 123.925 9.86719Q123.925 8.60254 124.38 7.95313Q124.834 7.30371 125.655 7.30371Q126.66 7.30371 127.131 8.14453L127.131 11.3984Q126.646 12.2598 125.641 12.2598Q124.834 12.2598 124.38 11.6206Z" />
    </g>
  </g>
</svg>